grf
version=1
nRows=17
nColumns=37
inDegrees=no
endheader
time	ground_force_1_vx	ground_force_1_vy	ground_force_1_vz	ground_force_1_px	ground_force_1_py	ground_force_1_pz	ground_moment_1_mx	ground_moment_1_my	ground_moment_1_mz	ground_force_2_vx	ground_force_2_vy	ground_force_2_vz	ground_force_2_px	ground_force_2_py	ground_force_2_pz	ground_moment_2_mx	ground_moment_2_my	ground_moment_2_mz	ground_force_3_vx	ground_force_3_vy	ground_force_3_vz	ground_force_3_px	ground_force_3_py	ground_force_3_pz	ground_moment_3_mx	ground_moment_3_my	ground_moment_3_mz	ground_force_4_vx	ground_force_4_vy	ground_force_4_vz	ground_force_4_px	ground_force_4_py	ground_force_4_pz	ground_moment_4_mx	ground_moment_4_my	ground_moment_4_mz
      4.47000000	      0.00000000	     -0.00000000	      0.00000000	      0.00000000	      0.00000000	      0.00000000	      0.00000000	      0.00000000	      0.00000000	      0.26042199	     75.94631195	   -531.77056885	   -358.86177389	  -1127.00258203	      0.00000000	      0.00000000	      0.00000000	   8922.80912040	     32.30552426	   -115.56887337	   -705.37347412	   -383.61466140	   -604.29995655	      0.00000000	      0.00000000	     -0.00000000	 -11734.93949417	    -35.42555095	     16.27041173	     76.56676483	    601.26060471	   -561.68252924	      0.00000000	      0.00000000	      0.00000000	     16.35833178
      4.48000000	      0.00000000	     -0.00000000	      0.00000000	      0.00000000	      0.00000000	      0.00000000	      0.00000000	      0.00000000	      0.00000000	      3.00296140	     77.24588776	   -547.01599121	   -360.05338177	  -1126.52652921	      0.00000000	      0.00000000	      0.00000000	   9180.88505102	     36.66647833	   -117.98985611	   -721.72393799	   -383.85898526	   -604.24524674	      0.00000000	      0.00000000	     -0.00000000	 -11767.02900609	    -35.17906429	     16.19453738	     75.27548218	    607.75569967	   -565.00540020	      0.00000000	      0.00000000	      0.00000000	     60.05107501
      4.49000000	      0.00000000	     -0.00000000	      0.00000000	      0.00000000	      0.00000000	      0.00000000	      0.00000000	      0.00000000	      0.00000000	      7.90926981	     78.09997559	   -561.70257568	   -360.93614265	  -1125.56681896	      0.00000000	      0.00000000	      0.00000000	   9323.05914172	     39.76416098	   -121.42556347	   -731.29461670	   -383.83719527	   -604.70804259	      0.00000000	     -0.00000000	     -0.00000000	 -11699.51682317	    -35.12013102	     16.26905558	     76.71318054	    602.02106900	   -561.76799219	      0.00000000	      0.00000000	     -0.00000000	    -60.63697183
      4.50000000	      0.00000000	     -0.00000000	      0.00000000	      0.00000000	      0.00000000	      0.00000000	      0.00000000	      0.00000000	      0.00000000	     10.04386044	     81.01953125	   -578.74029541	   -361.85882614	  -1125.08306383	      0.00000000	      0.00000000	      0.00000000	   9722.78657693	     41.22895108	   -124.26228693	   -742.44104004	   -383.18228162	   -603.94121511	      0.00000000	     -0.00000000	     -0.00000000	 -11677.35644756	    -35.38856749	     15.90905213	     75.14094543	    605.90388482	   -561.88002071	      0.00000000	      0.00000000	      0.00000000	     24.44644591
      4.51000000	      0.00000000	     -0.00000000	      0.00000000	      0.00000000	      0.00000000	      0.00000000	      0.00000000	      0.00000000	      0.00000000	      9.76079655	     86.33053589	   -592.65899658	   -360.73360333	  -1125.66816792	      0.00000000	      0.00000000	      0.00000000	   9873.75602997	     43.41027127	   -124.24737928	   -749.48419189	   -382.18620321	   -604.12224991	      0.00000000	     -0.00000000	     -0.00000000	 -11688.85532910	    -35.22536708	     16.19453738	     76.07318115	    604.44705284	   -559.60393445	      0.00000000	      0.00000000	     -0.00000000	   -130.36600597
      4.52000000	      0.00000000	     -0.00000000	      0.00000000	      0.00000000	      0.00000000	      0.00000000	      0.00000000	      0.00000000	      0.00000000	      6.84803629	     91.89899445	   -600.48974609	   -358.47395071	  -1126.89836421	      0.00000000	      0.00000000	      0.00000000	  10041.43275122	     42.22063117	   -124.95412051	   -755.64739990	   -381.14384455	   -603.62729359	      0.00000000	      0.00000000	     -0.00000000	 -11591.39844373	    -35.33609631	     16.10456776	     76.01203918	    605.08549702	   -565.87539211	      0.00000000	      0.00000000	      0.00000000	     55.50757259
      4.53000000	      0.00000000	     -0.00000000	      0.00000000	      0.00000000	      0.00000000	      0.00000000	      0.00000000	      0.00000000	      0.00000000	      4.94865608	     96.46003723	   -603.02355957	   -356.58905795	  -1128.25782166	      0.00000000	      0.00000000	      0.00000000	  10117.74867368	     41.67310767	   -124.87133390	   -759.75390625	   -379.68028096	   -603.25951889	      0.00000000	      0.00000000	     -0.00000000	 -11789.62978891	    -35.32020045	     16.24249004	     75.22846222	    606.70867066	   -563.45398443	      0.00000000	      0.00000000	     -0.00000000	    -87.23664691
      4.54000000	      0.00000000	     -0.00000000	      0.00000000	      0.00000000	      0.00000000	      0.00000000	      0.00000000	      0.00000000	      0.00000000	      3.96191144	     99.49506378	   -606.90826416	   -353.89763149	  -1129.97115215	      0.00000000	      0.00000000	      0.00000000	  10067.82532568	     39.04351866	   -124.09196813	   -757.51544189	   -376.92409496	   -602.54081932	      0.00000000	      0.00000000	     -0.00000000	 -11971.51791121	    -35.12508634	     15.97768232	     75.04080963	    605.46962083	   -565.63787266	      0.00000000	     -0.00000000	     -0.00000000	     72.04632106
      4.55000000	      0.00000000	     -0.00000000	      0.00000000	      0.00000000	      0.00000000	      0.00000000	      0.00000000	      0.00000000	      0.00000000	      4.25692892	    103.80950928	   -609.54339600	   -351.96871578	  -1130.69867341	      0.00000000	      0.00000000	      0.00000000	  10504.52018190	     33.55490172	   -124.07619770	   -750.67602539	   -373.76973836	   -601.20761663	      0.00000000	     -0.00000000	     -0.00000000	 -11969.40958448	    -35.30381254	     15.98212932	     76.23709869	    602.28261542	   -562.81805150	      0.00000000	      0.00000000	      0.00000000	     41.01820438
      4.56000000	      0.00000000	     -0.00000000	      0.00000000	      0.00000000	      0.00000000	      0.00000000	      0.00000000	      0.00000000	      0.00000000	      2.67631531	    107.01757050	   -611.43518066	   -348.58276376	  -1132.48038852	      0.00000000	      0.00000000	      0.00000000	  10420.05039879	     25.45122199	   -124.89122995	   -739.01080322	   -370.35359179	   -600.03455840	      0.00000000	      0.00000000	     -0.00000000	 -12323.55569066	    -35.28724149	     16.01864170	     75.37506104	    606.36134945	   -563.91328402	      0.00000000	     -0.00000000	     -0.00000000	     62.10249046
      4.57000000	      0.00000000	     -0.00000000	      0.00000000	      0.00000000	      0.00000000	      0.00000000	      0.00000000	      0.00000000	      0.00000000	     -0.17842102	    109.73968506	   -610.08612061	   -345.68591681	  -1134.32848956	      0.00000000	      0.00000000	      0.00000000	  10626.65132294	     16.84695091	   -126.53286890	   -725.17199707	   -366.94612441	   -598.65649452	      0.00000000	      0.00000000	     -0.00000000	 -12266.96535887	    -35.44565061	     16.03111195	     74.62397003	    608.95500706	   -563.46374711	      0.00000000	      0.00000000	     -0.00000000	    -17.49869938
      4.58000000	      0.00000000	     -0.00000000	      0.00000000	      0.00000000	      0.00000000	      0.00000000	      0.00000000	      0.00000000	      0.00000000	     -5.44539595	    112.43334961	   -600.53594971	   -341.62423844	  -1135.85078870	      0.00000000	      0.00000000	      0.00000000	  10534.89504637	     10.04056571	   -128.36749355	   -713.52331543	   -363.37172115	   -597.07173678	      0.00000000	      0.00000000	     -0.00000000	 -12301.34394788	    -35.40565733	     15.94800114	     75.72760773	    603.46094832	   -564.61568076	      0.00000000	      0.00000000	      0.00000000	     95.52903708
      4.59000000	      0.00000000	     -0.00000000	      0.00000000	      0.00000000	      0.00000000	      0.00000000	      0.00000000	      0.00000000	      0.00000000	    -11.34630680	    113.92838287	   -588.18835449	   -337.59894854	  -1137.69993000	      0.00000000	      0.00000000	      0.00000000	  10552.57073711	      4.78370718	   -130.48379558	   -699.62213135	   -359.59788751	   -595.46785049	      0.00000000	      0.00000000	     -0.00000000	 -12021.22128138	    -35.31938412	     16.09861110	     76.22216034	    604.08180592	   -561.68484800	      0.00000000	      0.00000000	      0.00000000	      5.19566473
      4.60000000	      0.00000000	     -0.00000000	      0.00000000	      0.00000000	      0.00000000	      0.00000000	      0.00000000	      0.00000000	      0.00000000	    -15.93528271	    115.53254700	   -576.24615479	   -333.22765868	  -1139.21063937	      0.00000000	      0.00000000	      0.00000000	  10488.55133484	     -1.03146977	   -131.68762198	   -683.56188965	   -355.78880700	   -593.67267987	      0.00000000	      0.00000000	     -0.00000000	 -11599.83528540	    -35.81705332	     16.34061554	     75.58679962	    607.10972243	   -564.88393570	      0.00000000	      0.00000000	      0.00000000	     29.23519043
      4.61000000	      0.00000000	     -0.00000000	      0.00000000	      0.00000000	      0.00000000	      0.00000000	      0.00000000	      0.00000000	      0.00000000	    -20.39819527	    116.62133026	   -568.60943604	   -329.40487030	  -1141.04555577	      0.00000000	      0.00000000	      0.00000000	  10382.04041056	     -7.75664144	   -131.47511224	   -667.07604980	   -352.03057161	   -592.91131535	      0.00000000	     -0.00000000	     -0.00000000	 -11354.44973960	    -35.42555092	     16.60791898	     77.56042480	    597.06207016	   -561.14473220	      0.00000000	      0.00000000	     -0.00000000	    -65.66835262
      4.62000000	      0.00000000	     -0.00000000	      0.00000000	      0.00000000	      0.00000000	      0.00000000	      0.00000000	      0.00000000	      0.00000000	    -23.05243874	    117.18511963	   -561.33721924	   -326.50253687	  -1142.19458681	      0.00000000	      0.00000000	      0.00000000	  10131.04048226	    -13.63026899	   -130.18615603	   -650.52624512	   -348.54552322	   -591.26914478	      0.00000000	      0.00000000	     -0.00000000	 -11194.96598160	    -35.31700374	     16.26530765	     74.76065063	    609.42450213	   -566.44557448	      0.00000000	      0.00000000	      0.00000000	     78.11845129
      4.63000000	      0.00000000	     -0.00000000	      0.00000000	      0.00000000	      0.00000000	      0.00000000	      0.00000000	      0.00000000	      0.00000000	    -23.69581985	    117.20648193	   -552.86193848	   -323.69177255	  -1143.03462452	      0.00000000	      0.00000000	      0.00000000	   9845.91826112	    -18.22366697	   -128.94967492	   -631.88977051	   -345.13982938	   -590.45347596	      0.00000000	      0.00000000	      0.00000000	 -10664.27049683	    -35.22774365	     16.06992267	     76.01492310	    604.98199970	   -561.06650656	      0.00000000	      0.00000000	      0.00000000	     67.29706760
